<svg aria-hidden="true" style="position: absolute; width: 0; height: 0; overflow: hidden;" version="1.1" xmlns="http://www.w3.org/2000/svg" xmlns:xlink="http://www.w3.org/1999/xlink">
<defs>
<symbol id="arrow-down" viewBox="0 0 32 32">
<path stroke-linejoin="round" stroke-linecap="round" stroke-miterlimit="4" stroke-width="1.8824" d="M24.471 11.765l-8.471 8.471-8.471-8.471"></path>
</symbol>
<symbol id="burger" viewBox="0 0 31 32">
<path fill="none" stroke="#fff" style="stroke: var(--color1, #fff)" stroke-linejoin="miter" stroke-linecap="round" stroke-miterlimit="4" stroke-width="1.2929" d="M7.273 9.536h16.485M7.273 21.172h16.485M7.273 15.354h16.485"></path>
</symbol>
<symbol id="cross" viewBox="0 0 32 32">
<path stroke-linejoin="round" stroke-linecap="round" stroke-miterlimit="4" stroke-width="1.3333" d="M7 7l9 9M16 16l-9 9M16 16l9 9M16 16l9-9"></path>
</symbol>
<symbol id="eye-closed" viewBox="0 0 31 32">
<path stroke-linejoin="miter" stroke-linecap="round" stroke-miterlimit="4" stroke-width="1.28" d="M18.446 22.384c-1.042 0.484-2.2 0.799-3.418 0.799-4.588 0-8.308-4.469-8.308-5.604 0-0.644 1.195-2.358 3.066-3.723M22.339 19.375c0.636-0.765 0.997-1.442 0.997-1.796 0-1.135-3.719-5.604-8.308-5.604 2.019 0 3.655 1.623 3.655 3.626M15.028 19.227c-2.019 0-3.655-1.623-3.655-3.626M24 11.975c-2.53-2.094-5.484-3.296-8.64-3.296-1.137 0-2.248 0.156-3.323 0.454M6.72 11.975c0.235-0.194 0.473-0.381 0.714-0.559M6.72 7.36l16.046 16.2"></path>
</symbol>
<symbol id="eye-open" viewBox="0 0 32 32">
<path stroke-linejoin="miter" stroke-linecap="round" stroke-miterlimit="4" stroke-width="1.3333" d="M15.654 11.909c-4.779 0-8.654 4.621-8.654 5.795s3.874 5.795 8.654 5.795c4.779 0 8.654-4.621 8.654-5.795s-3.875-5.795-8.654-5.795zM15.654 11.909c-2.103 0-3.808 1.679-3.808 3.75s1.705 3.75 3.808 3.75c2.103 0 3.808-1.679 3.808-3.75s-1.705-3.75-3.808-3.75zM25 11.909c-2.636-2.166-5.713-3.409-9-3.409s-6.364 1.243-9 3.409"></path>
</symbol>
<symbol id="filter" viewBox="0 0 31 32">
<path stroke-linejoin="miter" stroke-linecap="butt" stroke-miterlimit="4" stroke-width="1.28" d="M8.552 7.84h13.616c1.012 0 1.832 0.82 1.832 1.832 0 0.468-0.179 0.918-0.5 1.258l-6.146 6.511v4.507c0 1.469-1.535 2.434-2.859 1.796-0.69-0.332-1.129-1.031-1.129-1.796v-4.507l-6.146-6.511c-0.321-0.34-0.5-0.79-0.5-1.258 0-1.012 0.82-1.832 1.832-1.832z"></path>
</symbol>
<symbol id="clock" viewBox="0 0 33 32">
<path stroke-linejoin="round" stroke-linecap="round" stroke-miterlimit="4" stroke-width="0.6667" d="M16.667 10.154v6.577l4.385 3.654M26.167 16c0 5.247-4.253 9.5-9.5 9.5s-9.5-4.253-9.5-9.5c0-5.247 4.253-9.5 9.5-9.5s9.5 4.253 9.5 9.5z"></path>
</symbol>
<symbol id="flag" viewBox="0 0 33 32">
<path stroke-linejoin="round" stroke-linecap="round" stroke-miterlimit="4" stroke-width="1.3333" d="M16.663 4.667c1.685 0 3.231 0.161 4.457 0.348 1.552 0.236 2.768 1.299 3.115 2.785 0.418 1.794 0.828 4.522 0.758 8.187-0.078 4.044-0.668 6.962-1.237 8.866-0.154 0.515-0.51 0.78-0.913 0.848-0.421 0.071-0.941-0.069-1.363-0.49-0.769-0.766-1.65-1.593-2.462-2.232-0.405-0.319-0.809-0.604-1.184-0.811-0.353-0.196-0.767-0.374-1.171-0.374-0.397 0-0.825 0.175-1.199 0.367-0.399 0.205-0.84 0.486-1.292 0.805-0.905 0.639-1.907 1.466-2.789 2.233-0.466 0.405-1.014 0.5-1.447 0.383-0.417-0.114-0.769-0.434-0.878-0.992-0.372-1.917-0.725-4.749-0.725-8.59 0-3.831 0.395-6.534 0.788-8.273 0.326-1.442 1.502-2.468 3.014-2.702 1.236-0.191 2.81-0.358 4.527-0.358z"></path>
</symbol>
<symbol role="img" id="logo" viewBox="0 0 34 32">
<path style="fill: var(--color1, #fff)" d="M14.649 5.99c0.344-0.036 0.698 0.001 1.032 0.084 0.989 0.247 1.659 0.854 2.169 1.703 0.405-0.043 0.814-0.018 1.211 0.074 0.846 0.21 1.576 0.737 2.034 1.469 0.226 0.361 0.376 0.763 0.441 1.182s0.044 0.847-0.062 1.258c-0.283 1.070-0.962 1.626-1.887 2.16 0.026 0.657 0.016 1.316 0.017 1.974 0.001 0.415 0.028 0.848-0.013 1.26-0.017 0.175-0.052 0.318-0.142 0.469-0.133 0.095-0.269 0.124-0.43 0.143-0.423 0.051-0.883 0.016-1.31 0.015l-2.516-0.009c-0.895 0.066-1.843 0.004-2.743 0.004-0.599 0.001-1.274 0.071-1.866 0.004-0.211-0.024-0.301-0.163-0.417-0.318-0.075-1.179-0.011-2.397-0.011-3.58-0.493-0.252-0.912-0.561-1.256-0.996-0.256-0.324-0.445-0.695-0.554-1.092s-0.139-0.81-0.085-1.218c0.129-0.867 0.598-1.65 1.308-2.178 0.702-0.518 1.532-0.73 2.397-0.611 0.12-0.209 0.241-0.418 0.39-0.609 0.576-0.734 1.379-1.077 2.292-1.192zM14.697 7.437c-0.562 0.11-1.045 0.311-1.384 0.797-0.19 0.272-0.363 1.053-0.599 1.173-0.313 0.037-0.64-0.107-0.944-0.173-0.609-0.132-1.297 0.109-1.674 0.598-0.31 0.402-0.456 0.957-0.373 1.456 0.075 0.452 0.351 0.83 0.729 1.089 0.412 0.282 0.872 0.339 1.157 0.782 0.052 1.027 0.014 2.072 0.016 3.102 1.199-0.009 2.398-0.012 3.597-0.008l2.929-0.006c-0-0.522-0.113-3.117 0.131-3.372 0.115-0.119 0.377-0.192 0.532-0.252 0.698-0.271 1.208-0.741 1.272-1.515 0.042-0.511-0.125-0.97-0.468-1.351-0.313-0.347-0.721-0.531-1.192-0.559-0.413-0.024-1.263 0.365-1.522 0.075-0.126-0.141-0.177-0.384-0.241-0.561-0.264-0.73-0.816-1.154-1.593-1.255-0.125-0.016-0.247-0.023-0.373-0.020z"></path>
<path  style="fill: var(--color1, #fff)" d="M28.482 1.464c0.26-0.019 0.572-0.015 0.777 0.172 0.191 0.174 0.2 0.453 0.136 0.686-0.154 0.563-0.648 1.238-0.946 1.75-0.476 0.819-0.92 1.662-1.382 2.49-0.286 0.513-0.632 1.038-0.86 1.574-0.073 0.17-0.128 0.349-0.12 0.536 0.007 0.162 0.065 0.285 0.19 0.391 0.177 0.151 0.411 0.268 0.651 0.237 0.16-0.021 0.288-0.105 0.387-0.228 0.339-0.421 0.54-1.008 0.787-1.484l1.707-3.295c0.202-0.394 0.38-0.877 0.663-1.218 0.15-0.18 0.289-0.266 0.528-0.286 0.189-0.016 0.373 0.033 0.519 0.155 0.173 0.145 0.253 0.38 0.219 0.6-0.066 0.423-0.443 0.937-0.644 1.323l-1.55 3.039c-0.276 0.548-0.601 1.108-0.824 1.679-0.052 0.133-0.103 0.281-0.084 0.426 0.023 0.169 0.148 0.317 0.285 0.413 0.153 0.107 0.361 0.178 0.549 0.137 0.216-0.048 0.368-0.204 0.489-0.377 0.276-0.395 0.458-0.913 0.661-1.349l1.323-2.804c0.249-0.532 0.476-1.158 0.809-1.641 0.12-0.174 0.248-0.313 0.468-0.346 0.223-0.034 0.448 0.059 0.617 0.199 0.14 0.116 0.245 0.252 0.251 0.438 0.016 0.477-0.859 2.132-1.097 2.664l-0.938 2.095c-0.46 1.033-0.853 2.069-1.629 2.924-0.764 0.842-1.634 1.199-2.684 1.575-0.221 0.079-0.561 0.157-0.749 0.291-0.371 0.265-0.63 0.756-0.848 1.143-0.167 0.297-0.38 0.62-0.485 0.945-0.154 0.479-0.052 1.943-0.052 2.521l-0.002 7.462 0.004 2.282c0.001 0.447 0.028 0.914-0.022 1.358-0.018 0.163-0.083 0.344-0.203 0.461-0.363 0.353-1.703 0.228-2.217 0.225l-3.504-0.005c0.202-0.536 0.452-1.062 0.715-1.571 0.455-0.047 0.922-0.027 1.38-0.027l2.26 0.001 0-9.752c-0.293 0.693-0.666 1.372-1.002 2.046-0.599 1.194-1.193 2.391-1.779 3.592-0.708 1.46-1.427 2.915-2.158 4.365-0.306 0.606-0.577 1.244-0.924 1.827-0.141 0.236-0.311 0.45-0.547 0.602-0.32 0.204-0.709 0.277-1.082 0.203-0.182-0.037-0.354-0.112-0.505-0.218s-0.279-0.242-0.375-0.398c-0.203-0.326-0.254-0.691-0.144-1.058 0.18-0.599 0.559-1.177 0.859-1.725l1.425-2.608c1.726-3.16 3.466-6.318 5.135-9.506 0.394-0.752 1.285-2.176 1.499-2.884 0.234-0.771-0.257-1.693-0.401-2.451-0.129-0.682-0.113-1.338 0.062-2.010 0.074-0.287 0.178-0.566 0.311-0.832 0.228-0.449 0.503-0.879 0.757-1.314l1.316-2.272 1.062-1.842c0.21-0.363 0.409-0.754 0.663-1.089 0.079-0.104 0.177-0.168 0.29-0.234z"></path>
<path  style="fill: var(--color1, #fff)" d="M4.59 0.099c1.218-0.064 2.464-0.009 3.686-0.008l13.355-0.001c1.030-0 2.101-0.059 3.128 0.006 0.21 0.013 0.449 0.072 0.608 0.217 0.139 0.127 0.199 0.351 0.226 0.529 0.054 0.361 0.022 0.757 0.021 1.123l-0.009 2.076c-0.509 0.818-1.065 1.612-1.6 2.414 0.047-0.538 0.014-1.098 0.014-1.639l-0-3.043c-6.092 0.005-12.191 0.061-18.282-0.004-0.062 2.492-0.005 5-0.005 7.493l0.003 13.783 10.753-0.008c0.471-0.001 0.971-0.034 1.438 0.025-0.173 0.536-0.503 1.075-0.758 1.58l-11.011-0.019c-0.581 0.001-1.186-0.026-1.761 0.058-0.495 0.070-0.962 0.271-1.349 0.583-0.474 0.378-0.819 0.926-0.868 1.534-0.044 0.535 0.169 1.051 0.516 1.455 0.326 0.379 0.828 0.665 1.323 0.759 0.724 0.137 1.799 0.040 2.561 0.042l5.178 0.005c0.963 0.001 1.944-0.040 2.903 0.030-0.17 0.498-0.326 1.037-0.423 1.554-0.868-0.077-1.793-0.014-2.669-0.014l-5.186-0.001c-0.902 0.002-1.93 0.106-2.81-0.083-0.618-0.132-1.199-0.454-1.682-0.851-0.78-0.64-1.271-1.627-1.35-2.619-0.045-0.555-0.012-1.13-0.010-1.687l0.001-2.702-0-9.344-0.002-6.479c-0.001-0.833-0.078-2.299 0.035-3.085 0.106-0.78 0.441-1.513 0.963-2.108 0.769-0.903 1.871-1.468 3.063-1.571zM4.108 1.842c-0.858 0.348-1.487 0.784-1.853 1.654-0.126 0.3-0.16 0.67-0.171 0.994-0.054 1.586-0.004 3.191-0.003 4.778l0.001 9.166 0.001 4.064c0 0.46-0.086 1.088 0.016 1.527l0.037 0.013 0.057-0.037c0.647-0.478 1.195-0.739 1.989-0.905-0.062-2.265-0.008-4.548-0.005-6.814 0.003-2.548-0.042-5.1-0.013-7.647 0.017-1.667 0.020-3.333 0.011-5-0-0.401 0.066-1.447-0.012-1.776l-0.055-0.016z"></path>
</symbol>
</defs>
</svg>
