<svg width="32" height="30" viewBox="0 0 32 30" fill="none" xmlns="http://www.w3.org/2000/svg">
<path d="M13.7335 5.61519C14.0557 5.58158 14.388 5.61572 14.701 5.69392C15.6281 5.92561 16.2567 6.49481 16.7343 7.29074C17.114 7.25044 17.4978 7.27394 17.8696 7.36022C18.6632 7.55694 19.3475 8.0512 19.7769 8.73777C19.9888 9.07607 20.1295 9.45296 20.1906 9.84599C20.2516 10.239 20.2317 10.6401 20.1321 11.0254C19.8668 12.0281 19.2302 12.5502 18.3631 13.0503C18.3872 13.6659 18.3781 14.2845 18.3795 14.9006C18.3802 15.2898 18.4057 15.6959 18.3675 16.0822C18.3511 16.2461 18.3191 16.3803 18.2339 16.522C18.1094 16.611 17.982 16.638 17.8306 16.6563C17.4339 16.7039 17.0029 16.6717 16.6029 16.6708L14.2438 16.6624C13.4048 16.7244 12.5162 16.6658 11.672 16.6664C11.1101 16.6669 10.4775 16.7327 9.92259 16.6702C9.72461 16.6479 9.64013 16.5175 9.5318 16.3719C9.46181 15.2669 9.52125 14.1251 9.52172 13.016C9.05956 12.7799 8.66645 12.4901 8.34454 12.0827C8.10434 11.7788 7.92771 11.4309 7.82485 11.0593C7.722 10.6876 7.69498 10.2995 7.74534 9.91748C7.86585 9.10454 8.30632 8.37104 8.97144 7.87572C9.62928 7.38971 10.408 7.19163 11.2187 7.3029C11.3316 7.10719 11.4442 6.91069 11.5843 6.73227C12.1245 6.04427 12.8771 5.72287 13.7335 5.61519ZM13.7787 6.97239C13.2523 7.07566 12.7988 7.2638 12.4812 7.71929C12.3034 7.97426 12.141 8.70692 11.9194 8.8188C11.626 8.85338 11.319 8.71854 11.0347 8.6567C10.464 8.53252 9.81903 8.75897 9.46534 9.2175C9.17444 9.59461 9.03747 10.1146 9.11536 10.5827C9.18587 11.0061 9.44485 11.3612 9.79923 11.6038C10.1859 11.8686 10.617 11.9212 10.8841 12.3369C10.9333 13.2999 10.8976 14.2797 10.8991 15.2448C12.0231 15.2361 13.1471 15.2337 14.2711 15.2376L17.0167 15.2321C17.0164 14.7429 16.9108 12.31 17.1394 12.0711C17.2468 11.9591 17.4925 11.8907 17.6377 11.8344C18.2918 11.5801 18.7704 11.1393 18.8301 10.4138C18.8698 9.9347 18.7133 9.504 18.3912 9.14684C18.0978 8.82163 17.7149 8.64913 17.2741 8.62323C16.8871 8.60045 16.0904 8.96573 15.8472 8.69379C15.7289 8.56136 15.6816 8.33415 15.6212 8.16774C15.3737 7.48301 14.8561 7.0856 14.1281 6.99126C14.0113 6.97616 13.8962 6.96995 13.7787 6.97239Z" fill="white"/>
<path d="M26.7019 1.37294C26.9454 1.3554 27.2377 1.35856 27.4299 1.53379C27.609 1.69693 27.6173 1.95871 27.5576 2.17666C27.4131 2.70472 26.9498 3.33704 26.671 3.81732C26.2247 4.5856 25.8083 5.37507 25.3752 6.1516C25.1073 6.63249 24.7829 7.12434 24.5685 7.62682C24.5005 7.78663 24.4488 7.95439 24.4564 8.12962C24.463 8.28182 24.5169 8.39636 24.6341 8.49626C24.8 8.63755 25.0192 8.74785 25.2445 8.71822C25.3944 8.69853 25.5146 8.61997 25.6074 8.50461C25.9251 8.10982 26.1133 7.55996 26.3455 7.1133L27.946 4.02433C28.1353 3.655 28.302 3.20188 28.5677 2.88256C28.7082 2.71372 28.8389 2.63351 29.0631 2.61464C29.2404 2.59972 29.4129 2.64549 29.5498 2.76039C29.7117 2.89673 29.7874 3.11626 29.7554 3.32262C29.6939 3.71939 29.3405 4.20128 29.1519 4.56293L27.6989 7.41181C27.4397 7.92563 27.1358 8.45091 26.9268 8.98618C26.8784 9.11065 26.83 9.25004 26.8482 9.38517C26.8693 9.54354 26.9869 9.68264 27.115 9.77239C27.2584 9.8728 27.4535 9.93941 27.6297 9.90067C27.8325 9.85608 27.9744 9.70976 28.088 9.54694C28.3464 9.17705 28.5175 8.69121 28.7079 8.28182L29.9483 5.65282C30.182 5.15371 30.3949 4.56759 30.7065 4.11429C30.8186 3.95119 30.9391 3.82101 31.1455 3.78948C31.3544 3.75759 31.5659 3.84519 31.7235 3.97597C31.8549 4.0848 31.9528 4.21254 31.9587 4.38666C31.9739 4.83364 31.1535 6.38534 30.9304 6.88415L30.0513 8.84865C29.6196 9.81741 29.2513 10.7886 28.5237 11.5901C27.807 12.3794 26.9916 12.7143 26.0078 13.0663C25.8003 13.1406 25.4822 13.2138 25.306 13.3395C24.958 13.5882 24.7156 14.048 24.5114 14.4107C24.3549 14.6894 24.1547 14.9923 24.0564 15.2969C23.9119 15.7457 24.0076 17.1182 24.0076 17.6599L24.0062 24.6559L24.0098 26.7949C24.0106 27.2139 24.036 27.6519 23.9894 28.068C23.9723 28.2204 23.9119 28.3904 23.7987 28.4998C23.458 28.8306 22.2026 28.7136 21.7207 28.7111L18.4353 28.7068C18.6246 28.2046 18.8586 27.7111 19.1054 27.2336C19.5316 27.1895 19.9699 27.2085 20.3987 27.2081L22.5178 27.2092L22.5182 18.0666C22.2437 18.7167 21.8943 19.3525 21.5784 19.9847C21.0164 21.1042 20.4604 22.2267 19.9106 23.352C19.2468 24.721 18.5726 26.0849 17.8879 27.4438C17.6014 28.0116 17.347 28.6103 17.0216 29.157C16.8894 29.3787 16.73 29.5788 16.5091 29.7212C16.209 29.9128 15.8448 29.9811 15.4943 29.9117C15.3239 29.8766 15.1626 29.8071 15.0207 29.7078C14.8788 29.6084 14.7592 29.4812 14.6695 29.3342C14.4794 29.0286 14.431 28.686 14.5344 28.3424C14.7033 27.781 15.0589 27.2393 15.3396 26.725L16.6754 24.2804C18.2933 21.3183 19.9248 18.3575 21.4899 15.3682C21.859 14.6636 22.6944 13.3282 22.8953 12.6644C23.1144 11.942 22.6543 11.0771 22.5196 10.3665C22.3984 9.72745 22.4134 9.11212 22.5779 8.48177C22.647 8.21233 22.7447 7.95083 22.8694 7.70161C23.0831 7.28081 23.3408 6.87795 23.5789 6.47014L24.8128 4.34003L25.8087 2.61299C26.0052 2.27258 26.1919 1.9058 26.43 1.59229C26.5043 1.49444 26.5963 1.4345 26.7019 1.37294Z" fill="white"/>
<path d="M4.30346 0.0928586C5.44581 0.0332056 6.61349 0.0842858 7.7589 0.085326L14.3234 0.0877289L20.2794 0.0847874C21.2454 0.0846798 22.2493 0.0295827 23.2121 0.0907064C23.409 0.103189 23.6329 0.158035 23.7817 0.293806C23.9124 0.413004 23.9685 0.622453 23.9936 0.78936C24.0445 1.12791 24.0143 1.49899 24.0136 1.84217L24.0052 3.78858C23.5284 4.55521 23.0064 5.3001 22.5056 6.05199C22.5496 5.54754 22.5191 5.02296 22.5191 4.51586L22.5187 1.66335C16.8077 1.6683 11.0894 1.72021 5.37891 1.65991C5.32122 3.99609 5.37407 6.34709 5.374 8.68461L5.37713 21.606L13.0746 21.6028L15.458 21.5985C15.8992 21.5977 16.3687 21.5669 16.8059 21.6221C16.6435 22.1249 16.3348 22.63 16.095 23.1035L8.16056 23.0866L5.77176 23.0855C5.22734 23.0866 4.66021 23.0608 4.12103 23.1397C3.65685 23.2051 3.21955 23.394 2.85616 23.686C2.41191 24.0408 2.08847 24.5541 2.04213 25.1237C2.00133 25.6252 2.20025 26.1094 2.52624 26.4879C2.83225 26.843 3.30252 27.1116 3.76676 27.1992C4.44513 27.3272 5.45331 27.2365 6.16757 27.2386L11.0221 27.2429C11.9248 27.2436 12.8442 27.2056 13.744 27.2713C13.5842 27.7383 13.4382 28.2437 13.3472 28.728C12.5331 28.6559 11.6661 28.7147 10.8452 28.7147L5.98372 28.7136C5.13769 28.7158 4.17475 28.8126 3.34922 28.6358C2.7695 28.5117 2.22533 28.2104 1.77194 27.838C1.04083 27.2383 0.580745 26.3124 0.506054 25.3823C0.464304 24.8622 0.494516 24.3227 0.496845 23.8008L0.497974 21.2678L0.497538 12.5082L0.495828 6.43415C0.495245 5.65289 0.422372 4.27904 0.528803 3.54161C0.628446 2.81028 0.942314 2.12345 1.43198 1.56521C2.15318 0.718633 3.18607 0.189024 4.30346 0.0928586ZM3.85124 1.72691C3.04704 2.05308 2.45683 2.46162 2.11435 3.27746C1.99616 3.55897 1.96464 3.90595 1.95437 4.20913C1.90407 5.69561 1.95052 7.20021 1.95154 8.68895L1.95274 17.2824L1.95335 21.0922C1.95372 21.5238 1.87273 22.1123 1.96839 22.5238L2.00275 22.5356L2.056 22.5012C2.66212 22.0532 3.176 21.8082 3.92069 21.6527C3.86249 19.5289 3.91345 17.3892 3.91574 15.2642C3.91832 12.8759 3.8765 10.4825 3.90369 8.09475C3.91936 6.53233 3.92267 4.96982 3.91363 3.40735C3.91341 3.03128 3.97551 2.05083 3.90242 1.74198L3.85124 1.72691Z" fill="white"/>
</svg>
