<svg width="163" height="136" viewBox="0 0 163 136" fill="none" xmlns="http://www.w3.org/2000/svg">
<path d="M99.9741 74.2115C99.9741 82.7879 91.703 89.7404 81.5001 89.7404C71.2972 89.7404 63.0261 82.7879 63.0261 74.2115C63.0261 65.6352 71.2972 58.6827 81.5001 58.6827C91.703 58.6827 99.9741 65.6352 99.9741 74.2115Z" stroke="#070707"/>
<path d="M33.4678 95.625L33.4678 57.7764C33.4678 51.4158 39.6019 46.2596 47.1688 46.2596C52.3584 46.2596 57.1026 43.7949 59.4234 39.8932L62.5286 34.673C65.0979 30.3535 70.3501 27.625 76.0954 27.625L86.9049 27.625C92.6502 27.6251 97.9023 30.3536 100.472 34.6731L103.577 39.8933C105.898 43.7951 110.642 46.2597 115.831 46.2597C123.398 46.2597 129.532 51.4159 129.532 57.7765V95.625C129.532 102.667 122.741 108.375 114.364 108.375H48.6359C40.2588 108.375 33.4678 102.667 33.4678 95.625Z" stroke="#070707"/>
</svg>
